HIERARCHY
ROOT root     
{
	OFFSET 0.0000 0.0000 0.0000
	CHANNELS 6 Xposition Yposition Zposition Zrotation Yrotation Xrotation
	JOINT pelvis   
	{
		OFFSET 0.0000 0.0000 0.0000
		CHANNELS 3 Zrotation Yrotation Xrotation
		JOINT thorax   
		{
			OFFSET 0.0000 23.0750 -5.0000
			CHANNELS 3 Zrotation Yrotation Xrotation
			JOINT rclavicle
			{
				OFFSET 0.0000 28.0009 0.0000
				CHANNELS 3 Zrotation Yrotation Xrotation
				JOINT rhumerus 
				{
					OFFSET -18.5725 5.5939 0.0000
					CHANNELS 3 Zrotation Yrotation Xrotation
					JOINT rradius  
					{
						OFFSET -24.8459 0.0000 0.0000
						CHANNELS 3 Zrotation Yrotation Xrotation
						JOINT rhand    
						{
							OFFSET -24.5477 0.0000 0.0000
							CHANNELS 3 Zrotation Yrotation Xrotation
							End Site
							{
								OFFSET -8.1826 0.0000 0.0000
							}
						}
					}
				}
			}
			JOINT lclavicle
			{
				OFFSET 0.0000 28.0009 0.0000
				CHANNELS 3 Zrotation Yrotation Xrotation
				JOINT lhumerus 
				{
					OFFSET 18.5725 5.5939 0.0000
					CHANNELS 3 Zrotation Yrotation Xrotation
					JOINT lradius  
					{
						OFFSET 24.8459 0.0000 0.0000
						CHANNELS 3 Zrotation Yrotation Xrotation
						JOINT lhand    
						{
							OFFSET 24.5477 0.0000 0.0000
							CHANNELS 3 Zrotation Yrotation Xrotation
							End Site
							{
								OFFSET 8.1826 0.0000 0.0000
							}
						}
					}
				}
			}
			JOINT head     
			{
				OFFSET 0.0000 35.2030 0.0000
				CHANNELS 3 Zrotation Yrotation Xrotation
				End Site
				{
					OFFSET 0.0000 11.7343 0.0000
				}
			}
		}
		JOINT rfemur   
		{
			OFFSET -8.2817 0.0000 0.0000
			CHANNELS 3 Zrotation Yrotation Xrotation
			JOINT rtibia   
			{
				OFFSET 0.0000 -43.3627 0.0000
				CHANNELS 3 Zrotation Yrotation Xrotation
				JOINT rfoot    
				{
					OFFSET 0.0000 -38.2947 0.0000
					CHANNELS 3 Zrotation Yrotation Xrotation
					JOINT rtoes    
					{
						OFFSET 0.0000 0.0000 16.6054
						CHANNELS 3 Zrotation Yrotation Xrotation
						End Site
						{
							OFFSET 0.0000 0.0000 5.5351
						}
					}
				}
			}
		}
		JOINT lfemur   
		{
			OFFSET 8.2817 0.0000 0.0000
			CHANNELS 3 Zrotation Yrotation Xrotation
			JOINT ltibia   
			{
				OFFSET 0.0000 -43.3627 0.0000
				CHANNELS 3 Zrotation Yrotation Xrotation
				JOINT lfoot    
				{
					OFFSET 0.0000 -38.2947 0.0000
					CHANNELS 3 Zrotation Yrotation Xrotation
					JOINT ltoes    
					{
						OFFSET 0.0000 0.0000 16.6054
						CHANNELS 3 Zrotation Yrotation Xrotation
						End Site
						{
							OFFSET 0.0000 0.0000 5.5351
						}
					}
				}
			}
		}
	}
}
MOTION
Frames: 13
Frame Time: .0333333
-128.95 84.744 -6.7302 125.93 85.5607 147.37 0 -0 0 -9.21365 -2.9321 -8.27016 29.3164 -9.62755 5.71473e-05 42.2024 10.2006 22.5637 -0 81.7039 -0 3.61447 6.49186 0.205097 -25.9976 15.6667 -2.3841e-05 -46.4866 14.3882 -0.756796 0 -75.2368 0 11.9544 -5.87443 -0.615587 5.22438 -3.12533 -7.53325 -4.65885 -10.5884 -3.47342 -0 -0 31.1407 1.85701e-05 5.67294 29.1052 2.76629 7.37706e-05 -93.6594 -3.83494 -3.69609 -39.5625 -0 -0 29.4178 -6.13792e-08 9.93674 -1.0627 -0.186197 5.00032e-07 -28.8116 
-127.99 84.649 -6.8203 124.084 85.5339 145.408 0 -0 0 -9.65453 -2.99796 -8.23044 29.3876 -9.69405 -8.65034e-05 42.618 9.77443 21.9766 -1.3347e-06 81.5076 -1.54874e-06 3.76537 6.36207 0.209304 -26.1156 15.6527 -7.98459e-05 -46.2781 13.8124 -0.666909 -1.30043e-06 -74.8925 9.95927e-07 11.9018 -5.90939 -0.616524 5.60875 -2.97697 -7.52845 -5.00846 -10.8666 -4.06862 -0 -0 33.2262 -4.44448e-05 5.81573 30.0812 2.92251 -2.52789e-06 -91.6269 -4.14164 -3.42384 -39.1731 -0 -0 30.1326 3.47564e-07 9.94089 -1.1151 -0.1954 1.26899e-06 -28.0636 
-127.04 84.577 -6.9099 121.882 85.5387 143.08 0 -0 0 -10.049 -3.03621 -8.19075 29.4384 -9.75134 -4.04863e-05 43.0463 9.34772 21.3886 -0 81.2678 -0 3.86857 6.22507 0.210396 -26.2377 15.6316 7.15993e-05 -46.095 13.2074 -0.568732 0 -74.509 0 11.8816 -5.94715 -0.619414 5.92959 -2.80876 -7.48573 -5.34296 -11.1089 -4.72582 -0 -0 35.3515 1.95475e-05 5.70164 30.8611 2.93177 -7.59169e-06 -89.1286 -4.42693 -3.14716 -38.6681 -0 -0 30.6517 -1.00583e-06 9.9354 -1.32957 -0.232899 -1.03215e-06 -27.4531 
-126.08 84.527 -6.9942 119.476 85.5866 140.544 0 -0 0 -10.3638 -3.05315 -8.16713 29.4647 -9.79092 1.03539e-05 43.4691 8.90698 20.8068 -3.63464e-06 80.9942 -3.79136e-06 3.92444 6.08678 0.208694 -26.3732 15.6003 7.5957e-05 -45.941 12.6022 -0.469658 0 -74.1126 0 11.8958 -5.98217 -0.623776 6.18288 -2.61496 -7.39251 -5.62883 -11.2986 -5.43803 -0 -0 37.4801 1.24409e-05 5.26938 31.3693 2.74849 -2.13484e-06 -86.3295 -4.66347 -2.8669 -38.0658 -0 -0 31.0011 9.33729e-06 9.91715 -1.69134 -0.295698 -2.58244e-07 -26.9945 
-125.13 84.499 -7.0743 116.757 85.6872 137.692 0 -0 0 -10.6038 -3.05931 -8.15951 29.4828 -9.82322 -2.84861e-05 43.8611 8.47126 20.2522 -0 80.6977 -0 3.92477 5.95328 0.204196 -26.5133 15.5716 -1.51433e-05 -45.8179 12.0012 -0.366303 0 -73.721 0 11.945 -6.01362 -0.629718 6.37977 -2.39014 -7.24385 -5.87027 -11.4428 -6.18921 -0 -0 39.5805 -3.99641e-05 4.50082 31.5485 2.3584 1.41085e-05 -83.4965 -4.85054 -2.59958 -37.3618 -0 -0 31.1891 -3.15379e-06 9.90335 -2.16838 -0.378503 1.58022e-07 -26.6872 
-124.17 84.494 -7.1479 113.776 85.8142 134.571 0 -0 0 -10.7576 -3.06562 -8.17447 29.4937 -9.85054 3.98777e-05 44.2075 8.04061 19.7348 -3.40064e-06 80.386 -3.55743e-06 3.87519 5.82848 0.197298 -26.6615 15.5466 -6.35348e-05 -45.7241 11.4199 -0.261736 -1.19442e-06 -73.3427 8.89353e-07 12.0217 -6.03945 -0.636507 6.52903 -2.13034 -7.03548 -6.0524 -11.5383 -6.97178 -0 -0 41.6231 -7.76261e-06 3.39247 31.3608 1.76708 -2.94865e-05 -80.7854 -4.9788 -2.3467 -36.5724 -0 -0 31.2365 -1.22232e-06 9.90233 -2.72369 -0.475297 1.32181e-06 -26.525 
-123.21 84.51 -7.2132 110.524 85.9875 131.181 0 -0 0 -10.8218 -3.08356 -8.21504 29.5055 -9.87702 3.02868e-05 44.4963 7.61937 19.264 -1.34116e-06 80.0749 -1.1269e-06 3.7848 5.71346 0.1889 -26.8165 15.5302 1.04211e-05 -45.6575 10.8645 -0.155542 8.68224e-07 -72.9951 -1.17344e-06 12.1204 -6.05796 -0.643716 6.64434 -1.83303 -6.76786 -6.16736 -11.5872 -7.77831 -0 -0 43.5769 7.88399e-06 1.97403 30.7837 1.01061 -2.27098e-06 -78.2936 -5.04615 -2.10809 -35.7075 -0 -0 31.1612 5.53731e-06 9.92279 -3.31526 -0.57961 7.72347e-08 -26.4913 
-122.24 84.549 -7.269 106.98 86.1986 127.501 0 -0 0 -10.7978 -3.124 -8.28222 29.52 -9.90809 -2.36549e-05 44.7245 7.2073 18.846 -3.1961e-06 79.7849 -3.35297e-06 3.66736 5.6077 0.179704 -26.9764 15.5249 5.13346e-05 -45.6143 10.3391 -0.0470313 1.20253e-06 -72.6905 -1.63434e-06 12.2307 -6.06849 -0.650796 6.74033 -1.49795 -6.44542 -6.21065 -11.5929 -8.60277 -0 -0 45.4149 2.20359e-06 0.303301 29.8188 0.150804 2.64139e-06 -76.0483 -5.05443 -1.8792 -34.7797 -0 -0 30.9751 -2.63844e-06 9.97005 -3.90119 -0.685195 -2.95852e-06 -26.5673 
-121.26 84.609 -7.3143 103.144 86.4275 123.531 0 -0 0 -10.6904 -3.19609 -8.37303 29.5405 -9.9487 -2.58747e-06 44.8915 6.80801 18.4814 -1.06061e-06 79.5151 -1.27495e-06 3.53778 5.50757 0.170198 -27.1376 15.5348 -4.76269e-05 -45.5905 9.84125 0.0661351 -1.14111e-06 -72.4305 8.35657e-07 12.3428 -6.07097 -0.657076 6.83261 -1.12695 -6.0759 -6.18264 -11.5616 -9.43966 -0 -0 47.115 -6.17997e-06 -1.53731 28.4813 -0.733196 -3.72319e-06 -74.0019 -5.00997 -1.65213 -33.8 -0 -0 30.6927 8.49314e-07 10.0449 -4.44337 -0.786203 1.2078e-06 -26.7315 
-120.28 84.69 -7.3477 99.0155 86.6901 119.285 0 -0 0 -10.5006 -3.30845 -8.49377 29.5642 -10.002 5.33261e-05 44.9977 6.4162 18.1692 -0 79.2799 -0 3.4088 5.40802 0.160999 -27.2964 15.5616 -1.51661e-05 -45.5839 9.36339 0.189251 8.24056e-07 -72.2231 -1.12958e-06 12.4471 -6.06624 -0.662088 6.933 -0.724499 -5.66818 -6.07802 -11.4987 -10.2958 -0 -0 48.6603 2.47447e-05 -3.45077 26.8041 -1.55757 1.24474e-05 -72.0162 -4.91545 -1.41719 -32.7917 -0 -0 30.326 1.08588e-06 10.1419 -4.91036 -0.877206 -1.28709e-06 -26.966 
-119.3 84.789 -7.3699 94.5349 86.9402 114.68 0 -0 0 -10.2476 -3.45836 -8.61784 29.5891 -10.0676 5.14575e-05 45.0665 6.02809 17.887 -0 79.0846 -0 3.3147 5.30515 0.153602 -27.4529 15.5787 -0.000103695 -45.5843 8.93331 0.306169 0 -72.0855 0 12.5323 -6.05242 -0.665215 7.05505 -0.296799 -5.23734 -5.91524 -11.4077 -11.1394 -0 -0 50.0155 -5.97884e-05 -5.34323 24.874 -2.25274 -1.76356e-05 -70.2203 -4.78966 -1.15522 -31.7356 -0 -0 29.8696 -4.43559e-06 10.2472 -5.28198 -0.953392 2.70173e-06 -27.2583 
-118.32 84.905 -7.3801 89.6712 87.1976 109.709 0 -0 0 -9.93194 -3.65207 -8.75891 29.6159 -10.1503 -2.71147e-05 45.0954 5.64392 17.6383 -0 78.9423 -0 3.24871 5.19205 0.1473 -27.5968 15.6073 -3.00298e-05 -45.5947 8.51328 0.437567 0 -71.9936 0 12.5912 -6.03358 -0.666299 7.20478 0.148694 -4.79474 -5.69113 -11.2977 -11.9938 -0 -0 51.1857 -6.83515e-05 -7.11063 22.7404 -2.7607 -1.73251e-05 -68.355 -4.63268 -0.862277 -30.6652 -0 -0 29.3399 -2.9662e-06 10.3507 -5.54528 -1.01111 -8.70437e-06 -27.5973 
-117.33 85.033 -7.3793 84.3364 87.4666 104.276 0 -0 0 -9.56789 -3.88537 -8.9048 29.639 -10.248 -6.17586e-05 45.0979 5.25757 17.4056 -1.40336e-06 78.8619 -1.70664e-06 3.22622 5.06598 0.1428 -27.7249 15.6307 -0.000136893 -45.6101 8.11445 0.576472 0 -71.9587 0 12.6198 -6.00968 -0.665133 7.38686 0.603801 -4.35424 -5.41937 -11.1731 -12.8511 -0 -0 52.163 -2.26609e-05 -8.6755 20.5067 -3.05971 -2.40871e-05 -66.5187 -4.45631 -0.527823 -29.5797 -0 -0 28.7353 2.62313e-06 10.4363 -5.69866 -1.04779 -1.28228e-07 -27.9748 
